:SAMPLES-PER-SECOND 30
:FULLY-SPECIFIED
:DEGREES
667
root  -21.1573 37.7912 -10.6348 -114.032 -81.011 105.112
RightUpLeg  -7.45629 7.95786 -13.0837
RightLeg  70.7747 3.29672 9.69019
RightFoot  6.61641 -1.48693 9.70326
RightToes  -1.33073e-015 0 -3.6325e-017
Spine  9.99341 3.44236 -1.63243
Spine1  6.5428 4.19871 -7.14152
HEad  -1.25945 1.61714 -0.0923887
LeftShoulder1  -0.495485 4.74062 -33.8998
LeftArm  4.76675 12.9833 -40.3737
LeftForeArm  24.6012 -17.0466 -6.0856
LeftHand  -0.115145 9.42181 -1.61448
RightShoulder  -1.01968 -6.18752 31.4193
RightArm  18.4497 -1.62468 46.5746
RightForeArm  24.4367 7.15676 8.68803
RightHand  0.137529 0.64503 2.62183
LeftUpLeg  -14.0832 4.21756 -12.6691
LeftLeg  29.0819 7.01808 4.57703
LeftFoot  -6.65709 -0.299664 8.30392
LeftToes  -1.63346e-009 7.54925e-011 9.86887e-012
668
root  -22.5188 38.1179 -10.4766 -107.351 -82.2361 98.4085
RightUpLeg  -12.1801 7.08144 -12.1249
RightLeg  70.3494 2.61077 7.37731
RightFoot  5.10202 -1.16973 8.33044
RightToes  -1.33073e-015 0 -3.6325e-017
Spine  9.88415 2.60937 -1.61006
Spine1  6.50864 3.10933 -6.10024
HEad  -0.304831 2.23391 -0.790951
LeftShoulder1  -0.463695 4.67498 -33.4507
LeftArm  7.68621 12.4325 -40.9988
LeftForeArm  22.6182 -18.9237 -5.32566
LeftHand  -0.0395866 7.70173 0.0388418
RightShoulder  -1.08685 -6.33895 31.774
RightArm  21.8488 -3.30947 45.4101
RightForeArm  20.133 10.8363 8.3086
RightHand  0.0843468 1.75082 1.20134
LeftUpLeg  -10.9349 3.30649 -12.1114
LeftLeg  27.9001 6.82723 4.27452
LeftFoot  -8.4701 -0.158031 8.32171
LeftToes  -1.63346e-009 7.54925e-011 9.86887e-012
669
root  -23.8852 38.4402 -10.3485 -99.6807 -83.014 90.947
RightUpLeg  -16.1998 5.95508 -11.4162
RightLeg  66.5162 1.95587 4.31648
RightFoot  3.16593 -0.94102 7.545
RightToes  -1.33073e-015 0 -3.6325e-017
Spine  9.67956 2.07695 -2.25513
Spine1  6.29043 2.21278 -4.31216
HEad  0.424383 2.35373 -1.29263
LeftShoulder1  -0.506575 4.788 -33.2836
LeftArm  10.507 12.1244 -41.1948
LeftForeArm  20.316 -21.9109 -4.24724
LeftHand  -0.0590666 8.23924 -0.546453
RightShoulder  -1.14228 -6.4819 31.8091
RightArm  25.423 -5.20891 44.2184
RightForeArm  13.5771 14.7998 7.04082
RightHand  0.0629333 2.4255 0.723258
LeftUpLeg  -7.75402 2.95519 -11.6629
LeftLeg  26.0303 6.32936 3.71621
LeftFoot  -9.8774 -0.0465399 8.29158
LeftToes  -1.63346e-009 7.54925e-011 9.86887e-012
670
root  -25.2438 38.7632 -10.2023 -90.9954 -83.8217 82.2449
RightUpLeg  -18.5 4.59261 -10.5354
RightLeg  58.8198 1.44243 2.14919
RightFoot  1.26741 -0.760868 6.98089
RightToes  -1.33073e-015 0 -3.6325e-017
Spine  9.45003 1.55958 -1.89551
Spine1  6.42828 1.61554 -3.35337
HEad  0.690747 3.06139 -1.6699
LeftShoulder1  -0.550044 4.88835 -33.5519
LeftArm  10.8641 11.5883 -40.6327
LeftForeArm  20.6542 -24.9422 -4.18229
LeftHand  -0.0567125 8.02815 -0.533692
RightShoulder  -1.12393 -6.43964 31.7295
RightArm  27.3739 -7.02255 43.3215
RightForeArm  8.90179 17.9518 5.75094
RightHand  0.0649571 4.09508 0.530106
LeftUpLeg  -4.06725 3.34735 -10.8168
LeftLeg  23.5027 5.25572 2.78981
LeftFoot  -11.0226 0.0431764 8.45085
LeftToes  -1.63346e-009 7.54925e-011 9.86887e-012
671
root  -26.5915 38.9967 -10.0556 -78.9445 -84.5366 70.3062
RightUpLeg  -19.3589 2.93086 -9.50207
RightLeg  47.7098 0.79239 0.599618
RightFoot  -0.28869 -0.712376 7.32213
RightToes  -1.33073e-015 0 -3.6325e-017
Spine  9.53442 1.06339 -0.823226
Spine1  6.01572 1.27956 -3.2432
HEad  0.568642 2.17409 -1.42012
LeftShoulder1  -0.468782 4.70415 -32.9217
LeftArm  9.24377 11.8474 -40.4816
LeftForeArm  21.8864 -28.1394 -4.88993
LeftHand  -0.0640467 8.73662 -0.483613
RightShoulder  -1.18573 -6.58133 31.99
RightArm  28.1626 -8.50561 42.3718
RightForeArm  6.3845 20.1393 5.0201
RightHand  0.00187411 4.7352 -0.27317
LeftUpLeg  -0.71655 3.54306 -9.7697
LeftLeg  21.3128 4.15242 1.98281
LeftFoot  -12.2672 0.144527 8.7418
LeftToes  -1.63346e-009 7.54925e-011 9.86887e-012
672
root  -27.9384 39.1208 -9.91066 -66.8107 -84.5068 58.5865
RightUpLeg  -19.2901 0.864886 -9.07287
RightLeg  34.1896 0.808898 0.382993
RightFoot  -0.589713 -0.656668 6.92794
RightToes  -1.33073e-015 0 -3.6325e-017
Spine  9.9218 0.65225 -0.652648
Spine1  4.7513 0.830279 -2.45897
HEad  0.715973 2.52175 -1.22623
LeftShoulder1  -0.54846 4.90822 -32.9031
LeftArm  7.95609 12.3466 -39.8712
LeftForeArm  23.1471 -31.3101 -5.55781
LeftHand  -0.0293489 7.30521 0.555092
RightShoulder  -1.10974 -6.41638 31.5456
RightArm  27.7718 -9.7472 42.0835
RightForeArm  6.22122 20.9986 4.79147
RightHand  -0.0251756 4.96385 -0.57631
LeftUpLeg  2.13497 3.57233 -9.33946
LeftLeg  19.4035 3.33308 1.51948
LeftFoot  -13.4045 0.240918 8.87277
LeftToes  -1.63346e-009 7.54925e-011 9.86887e-012
673
root  -29.3255 39.1676 -9.80615 -59.0853 -84.1239 51.2326
RightUpLeg  -18.055 -1.35275 -8.68484
RightLeg  19.1934 2.93553 0.580497
RightFoot  -0.822469 -0.73827 7.95084
RightToes  -1.33073e-015 0 -3.6325e-017
Spine  9.01101 0.590984 -0.595189
Spine1  5.49993 0.737976 -1.66237
HEad  0.030358 1.90215 -1.55185
LeftShoulder1  -0.542421 4.88747 -33.0483
LeftArm  7.2015 11.4293 -39.5673
LeftForeArm  23.6168 -33.0132 -5.9514
LeftHand  -0.022657 6.65704 1.05747
RightShoulder  -1.03523 -6.2527 31.0996
RightArm  26.8476 -9.78523 42.3309
RightForeArm  7.5056 20.4782 4.84631
RightHand  0.0183299 4.54131 -0.0776333
LeftUpLeg  5.13675 4.08684 -8.92464
LeftLeg  17.3634 2.04918 0.887659
LeftFoot  -14.634 0.346288 8.96566
LeftToes  -1.63346e-009 7.54925e-011 9.86887e-012
674
root  -30.7271 39.1569 -9.72158 -50.973 -83.464 43.5561
RightUpLeg  -16.7952 -5.34623 -7.54052
RightLeg  5.63582 8.67232 -0.312757
RightFoot  -1.62195 -0.748093 8.63265
RightToes  -1.33073e-015 0 -3.6325e-017
Spine  7.32746 0.532059 -0.415649
Spine1  7.29802 0.631541 -0.96626
HEad  -0.635445 1.04916 -1.81807
LeftShoulder1  -0.556507 4.9163 -33.2412
LeftArm  6.41017 10.1043 -39.3847
LeftForeArm  23.4682 -33.9851 -6.20994
LeftHand  -0.0128338 7.16543 1.58273
RightShoulder  -1.09123 -6.37833 31.4096
RightArm  26.3527 -8.52991 42.2791
RightForeArm  8.12007 18.5169 5.42634
RightHand  0.00777539 4.72459 -0.103724
LeftUpLeg  8.02416 4.62972 -8.33281
LeftLeg  15.4746 0.38005 0.214857
LeftFoot  -15.8552 0.449686 8.96359
LeftToes  -1.63346e-009 7.54925e-011 9.86887e-012
675
root  -32.1851 39.0075 -9.66689 -44.9437 -82.8318 37.6798
RightUpLeg  -16.1656 -7.68125 -6.66814
RightLeg  -2.3586 11.7694 -1.50167
RightFoot  -3.32468 -0.64976 9.01347
RightToes  -1.33073e-015 0 -3.6325e-017
Spine  7.08148 0.562042 -0.29411
Spine1  7.18929 0.542585 -0.24037
HEad  -0.656673 0.41112 -2.19622
LeftShoulder1  -0.491823 4.75455 -33.1683
LeftArm  5.23645 10.2226 -39.2824
LeftForeArm  24.2924 -34.8914 -6.39603
LeftHand  -0.0178611 6.89533 1.4275
RightShoulder  -1.11696 -6.43801 31.5187
RightArm  23.7349 -7.95417 42.2651
RightForeArm  12.3828 16.1138 6.07179
RightHand  0.111896 1.95424 1.57929
LeftUpLeg  10.67 4.87444 -7.75749
LeftLeg  14.9392 -0.934505 -0.0160549
LeftFoot  -17.618 0.599759 8.96842
LeftToes  -1.63346e-009 7.54925e-011 9.86887e-012
676
root  -33.6857 38.6665 -9.65627 -42.6957 -82.4814 35.587
RightUpLeg  -17.3625 -7.57644 -6.49023
RightLeg  -0.627545 8.50985 -0.728709
RightFoot  -4.97518 -0.624492 10.4036
RightToes  -1.33073e-015 0 -3.6325e-017
Spine  7.09806 0.677731 -0.0302369
Spine1  6.94121 0.653623 -0.112288
HEad  -0.556846 -0.172529 -2.85142
LeftShoulder1  -0.535177 4.85408 -33.4821
LeftArm  4.83762 9.55973 -39.0877
LeftForeArm  23.8296 -34.1202 -6.22219
LeftHand  -0.0141172 6.28336 2.24716
RightShoulder  -1.08139 -6.34905 31.4517
RightArm  21.1596 -6.98401 42.3284
RightForeArm  14.1629 13.5527 6.85125
RightHand  0.0614204 3.2301 0.581495
LeftUpLeg  12.4967 4.48692 -7.61136
LeftLeg  16.2531 -0.85128 0.289135
LeftFoot  -20.2732 0.792679 8.61087
LeftToes  -1.63346e-009 7.54925e-011 9.86887e-012
677
root  -35.1737 38.306 -9.61157 -39.2023 -82.8483 32.1834
RightUpLeg  -19.2066 -6.87139 -5.41949
RightLeg  6.17566 3.69782 0.125919
RightFoot  -2.05395 -0.606048 7.81895
RightToes  -1.33073e-015 0 -3.6325e-017
Spine  7.08217 0.595443 1.91818
Spine1  7.20659 0.903562 -1.12022
HEad  -0.826919 -0.532576 -2.69785
LeftShoulder1  -0.519688 4.82757 -33.1113
LeftArm  3.8762 9.80164 -39.2878
LeftForeArm  23.4059 -33.4572 -6.07776
LeftHand  -0.00740608 6.45702 2.64727
RightShoulder  -1.07919 -6.31592 31.8074
RightArm  17.8426 -5.54679 42.535
RightForeArm  17.0366 10.7231 7.33732
RightHand  0.0780241 3.19051 0.821219
LeftUpLeg  13.8172 3.53632 -7.09954
LeftLeg  18.6131 0.23988 0.590266
LeftFoot  -23.0714 0.886032 7.23959
LeftToes  -1.63346e-009 7.54925e-011 9.86887e-012
678
root  -36.6473 38.1658 -9.54989 -28.3168 -82.9741 20.9353
RightUpLeg  -20.2218 -6.23943 -3.95641
RightLeg  12.0174 3.39301 0.598898
RightFoot  4.37353 -0.317428 2.30017
RightToes  -1.33073e-015 0 -3.6325e-017
Spine  7.90758 0.254831 4.28588
Spine1  6.93843 0.578486 -0.486622
HEad  -0.491034 -0.182892 -3.60207
LeftShoulder1  -0.51619 4.80494 -33.5203
LeftArm  4.1363 10.4766 -38.9334
LeftForeArm  22.3994 -31.956 -5.75955
LeftHand  0.00400132 7.17589 2.58163
RightShoulder  -1.0512 -6.2642 31.4966
RightArm  16.1419 -5.10758 42.4587
RightForeArm  18.2874 9.30853 7.31413
RightHand  0.0700199 3.15713 0.716714
LeftUpLeg  15.3301 1.5768 -6.07385
LeftLeg  21.2656 1.2207 0.855396
LeftFoot  -23.6385 0.648935 4.75688
LeftToes  -1.63346e-009 7.54925e-011 9.86887e-012
